<svg xmlns:mydata="http://www.w3.org/2000/svg"
style="height: 160px;margin-top: -55px;margin-left: -15px;width: 160px;mix-blend-mode: normal;pointer-events: none;"
mydata:contrastcolor="11111f" mydata:template="Contrast" mydata:presentation="2.5" mydata:layouttype="undefined" mydata:specialfontid="undefined" mydata:id1="035" mydata:id2="657" mydata:companyname="Zone Tree" mydata:companytagline="" version="1.1" xmlns="http://www.w3.org/2000/svg" xmlns:xlink="http://www.w3.org/1999/xlink" viewBox="0 0 550 470" class="svg-primary-tile"><g fill="#f1c400" fill-rule="none" stroke="none" stroke-width="1" stroke-linecap="butt" stroke-linejoin="miter" stroke-miterlimit="10" stroke-dasharray="" stroke-dashoffset="0" font-family="none" font-weight="none" font-size="none" text-anchor="none"><g data-paper-data="{&quot;isGlobalGroup&quot;:true,&quot;bounds&quot;:{&quot;x&quot;:65,&quot;y&quot;:197.36884325158726,&quot;width&quot;:420,&quot;height&quot;:75.2623134968255}}"><g data-paper-data="{&quot;isPrimaryText&quot;:true}"><path d="M79.16663,251.17835h22.4164v8.79075h-36.4816v-5.13921l22.01068,-35.29823h-22.11211v-8.79075h36.27873v4.93634z" data-paper-data="{&quot;glyphName&quot;:&quot;Z&quot;,&quot;glyphIndex&quot;:0,&quot;firstGlyphOfWord&quot;:true,&quot;word&quot;:1}" fill-rule="nonzero"></path><path d="M146.9568,239.78419c0,6.06336 -1.92157,11.06169 -5.7647,14.99498c-3.84313,3.9333 -8.864,5.89994 -15.06261,5.89994c-6.24368,0 -11.304,-1.96665 -15.18094,-5.89994c-3.87694,-3.9333 -5.81542,-8.93162 -5.81542,-14.99498v-8.85837c0,-6.04082 1.93284,-11.03351 5.79851,-14.97808c3.86567,-3.94457 8.90908,-5.91685 15.13023,-5.91685c6.17606,0 11.20257,1.97228 15.07951,5.91685c3.87694,3.94457 5.81542,8.93726 5.81542,14.97808zM135.56265,230.85821c0,-3.5163 -0.82836,-6.40147 -2.48508,-8.6555c-1.65672,-2.25404 -3.99528,-3.38106 -7.01569,-3.38106c-3.08803,0 -5.44914,1.12138 -7.08331,3.36415c-1.63418,2.24277 -2.45127,5.13357 -2.45127,8.67241v8.92599c0,3.56138 0.82836,6.46909 2.48508,8.72313c1.65672,2.25404 4.02909,3.38106 7.11712,3.38106c2.99787,0 5.31953,-1.12702 6.96498,-3.38106c1.64545,-2.25404 2.46817,-5.16175 2.46817,-8.72313z" data-paper-data="{&quot;glyphName&quot;:&quot;O&quot;,&quot;glyphIndex&quot;:1,&quot;word&quot;:1}" fill-rule="nonzero"></path><path d="M194.66351,259.9691h-11.39416l-18.02103,-31.3762l-0.20286,0.06762v31.30858h-11.46178v-49.22818h11.46178l18.02103,31.3762l0.20286,-0.06762v-31.30858h11.39416z" data-paper-data="{&quot;glyphName&quot;:&quot;N&quot;,&quot;glyphIndex&quot;:2,&quot;word&quot;:1}" fill-rule="nonzero"></path><path d="M233.17374,238.90512h-19.30583v12.27323h22.75451v8.79075h-34.21629v-49.22818h34.28391v8.79075h-22.82213v10.58271h19.30583z" data-paper-data="{&quot;glyphName&quot;:&quot;E&quot;,&quot;glyphIndex&quot;:3,&quot;lastGlyphOfWord&quot;:true,&quot;word&quot;:1}" fill-rule="nonzero"></path><path d="M360.98285,219.53167h-12.98326v40.43743h-11.46178v-40.43743h-12.88182v-8.79075h37.32686z" data-paper-data="{&quot;glyphName&quot;:&quot;T&quot;,&quot;glyphIndex&quot;:4,&quot;firstGlyphOfWord&quot;:true,&quot;word&quot;:2}" fill-rule="nonzero" fill="#ffffff"></path><path d="M377.07668,241.10281v18.86629h-11.46178v-49.22818h18.93392c5.70271,0 10.22206,1.31861 13.55804,3.95584c3.33598,2.63722 5.00396,6.24368 5.00396,10.81938c0,2.54706 -0.67058,4.73348 -2.01173,6.55925c-1.34115,1.82577 -3.31907,3.31344 -5.93375,4.46299c3.02041,0.85653 5.18992,2.28221 6.50853,4.27704c1.31861,1.99482 1.97792,4.4799 1.97792,7.45523v3.11057c0,1.2848 0.19159,2.74993 0.57478,4.39537c0.38319,1.64545 1.04813,2.81755 1.99482,3.5163v0.67621h-11.76608c-0.90162,-0.69875 -1.4933,-1.93847 -1.77505,-3.71916c-0.28175,-1.78069 -0.42263,-3.42614 -0.42263,-4.93634v-2.97533c0,-2.3442 -0.61986,-4.13616 -1.85958,-5.37588c-1.23972,-1.23972 -3.05422,-1.85958 -5.4435,-1.85958zM377.07668,232.31206h7.53976c2.29912,0 4.05727,-0.52406 5.27445,-1.57219c1.21718,-1.04813 1.82577,-2.5527 1.82577,-4.51371c0,-2.00609 -0.6255,-3.62337 -1.87649,-4.85182c-1.25099,-1.22845 -3.01478,-1.84268 -5.29135,-1.84268h-7.47213z" data-paper-data="{&quot;glyphName&quot;:&quot;R&quot;,&quot;glyphIndex&quot;:5,&quot;word&quot;:2}" fill-rule="nonzero" fill="#ffffff"></path><path d="M442.0944,238.90512h-19.30583v12.27323h22.75451v8.79075h-34.21629v-49.22818h34.28391v8.79075h-22.82213v10.58271h19.30583z" data-paper-data="{&quot;glyphName&quot;:&quot;E&quot;,&quot;glyphIndex&quot;:6,&quot;word&quot;:2}" fill-rule="nonzero" fill="#ffffff"></path><path d="M481.4837,238.90512h-19.30583v12.27323h22.75451v8.79075h-34.21629v-49.22818h34.28391v8.79075h-22.82213v10.58271h19.30583z" data-paper-data="{&quot;glyphName&quot;:&quot;E&quot;,&quot;glyphIndex&quot;:7,&quot;lastGlyphOfWord&quot;:true,&quot;word&quot;:2}" fill-rule="nonzero" fill="#ffffff"></path><g data-paper-data="{&quot;fillRule&quot;:&quot;evenodd&quot;,&quot;fillRuleOriginal&quot;:&quot;evenodd&quot;,&quot;isIcon&quot;:true,&quot;iconStyle&quot;:&quot;icon-in-text&quot;,&quot;selectedEffects&quot;:{&quot;container&quot;:&quot;&quot;,&quot;transformation&quot;:&quot;&quot;,&quot;pattern&quot;:&quot;&quot;},&quot;bounds&quot;:{&quot;x&quot;:246.37676583725084,&quot;y&quot;:197.36884325158726,&quot;width&quot;:67.59250063907814,&quot;height&quot;:75.2623134968255},&quot;iconType&quot;:&quot;icon&quot;,&quot;rawIconId&quot;:&quot;39539&quot;,&quot;isDetailed&quot;:false,&quot;suitableAsStandaloneIcon&quot;:true}" fill-rule="evenodd"><path d="M277.47269,232.55759c1.48557,0.86112 3.9151,0.86112 5.40067,-0.00091l27.13986,-15.74959c1.48557,-0.86203 1.48375,-2.26932 -0.00364,-3.12862l-27.13258,-15.66584c-1.48648,-0.85839 -3.91965,-0.85839 -5.40704,0l-27.14077,15.67039c-1.48739,0.85839 -1.4883,2.26567 -0.00273,3.12771zM284.04487,234.58478c-1.48557,0.86203 -2.70079,2.97205 -2.70079,4.68883v31.42999c0,1.71769 1.21704,2.41951 2.70443,1.56112l27.21633,-15.71409c1.48739,-0.85839 2.70443,-2.96568 2.70443,-4.68337v-31.52739c0,-1.71678 -1.21522,-2.41678 -2.70079,-1.55475zM279.00286,239.2736c0,-1.71769 -1.21522,-3.8268 -2.70079,-4.68883l-27.22452,-15.79328c-1.48557,-0.86203 -2.70079,-0.16203 -2.70079,1.55475v31.52102c0,1.71769 1.21613,3.82407 2.70352,4.68337l27.21815,15.71409c1.48739,0.85839 2.70352,0.15657 2.70352,-1.56112v-31.42999z" data-paper-data="{&quot;isPathIcon&quot;:true}"></path></g></g></g></g></svg>